<?xml version="1.0" standalone="no"?>
<!DOCTYPE svg PUBLIC "-//W3C//DTD SVG 20010904//EN"
 "http://www.w3.org/TR/2001/REC-SVG-20010904/DTD/svg10.dtd">
<svg version="1.0" xmlns="http://www.w3.org/2000/svg"
 width="260.000000pt" height="260.000000pt" viewBox="0 0 260.000000 260.000000"
 preserveAspectRatio="xMidYMid meet">
<metadata>
Created by potrace 1.11, written by Peter Selinger 2001-2013
</metadata>
<g transform="translate(0.000000,260.000000) scale(0.100000,-0.100000)"
fill="#000000" stroke="none">
<path d="M0 1300 l0 -1300 1300 0 1300 0 0 1300 0 1300 -1300 0 -1300 0 0
-1300z m2103 520 l-128 -5 -3 -292 -2 -293 -265 0 -265 0 -2 293 -3 292 -130
3 -129 3 264 264 265 265 263 -262 262 -263 -127 -5z m-756 -730 l-72 -5 -3
-187 -2 -188 -170 0 -170 0 -2 188 -3 187 -74 3 -75 3 165 165 164 165 157
-163 157 -163 -72 -5z m-484 -520 l-58 -5 -3 -157 -3 -158 -134 0 -134 0 -3
158 -3 157 -59 3 -60 3 130 130 129 129 128 -127 128 -128 -58 -5z"/>
</g>
</svg>
