<svg id="Capa_1" enable-background="new 0 0 511.416 511.416" height="512" viewBox="0 0 511.416 511.416" width="512" xmlns="http://www.w3.org/2000/svg"><g><path d="m473.584 144.959c-7.411-59.694-58.451-106.048-120.119-106.048-66.746 0-121.049 54.302-121.049 121.048 0 9.98 1.223 19.678 3.511 28.961l-205.961-41.56-1.475 16.701c-3.111 35.26 7.151 69.496 28.513 96.809l-28.435 11.884 5.784 13.84c4.8 11.484 11.019 22.101 18.458 31.669l-52.811 29.569 7.328 13.088c28.443 50.803 74.969 87.487 131.004 103.297 19.652 5.545 39.64 8.288 59.514 8.288 36.795 0 73.178-9.412 106.163-27.881 50.803-28.443 87.487-74.969 103.297-131.004 4.629-16.407 7.291-33.054 8.048-49.67 31.327-18.715 53.535-51.173 58.23-88.991h37.832v-30zm-432.234 214.103 33.216-18.597c10.343 8.383 21.969 15.302 34.632 20.501 16.897 6.936 34.627 10.402 52.357 10.402 18.016 0 36.031-3.581 53.154-10.737 28.778-12.027 52.848-33.696 67.775-61.016 5.778-10.574 10.109-21.843 12.946-33.453 17.241 9.459 37.02 14.846 58.034 14.846 10.56 0 20.808-1.363 30.579-3.916-7.057 57.47-40.412 110.966-94.692 141.357-86.032 48.168-194.088 21.211-248.001-59.387zm27.416-70.593 41.066-17.163-17.151-15.851c-20.55-18.99-32.657-44.501-34.489-71.795l191.558 38.654c5.278 8.746 11.633 16.771 18.876 23.897-1.64 13.59-5.837 26.886-12.467 39.019-11.842 21.673-30.176 38.175-53.018 47.721-26.583 11.109-55.897 11.204-82.551.262-21.969-9.019-39.959-24.644-51.824-44.744zm284.699-37.461c-50.204 0-91.049-40.845-91.049-91.049s40.845-91.048 91.049-91.048 91.048 40.844 91.048 91.048-40.844 91.049-91.048 91.049z"/><path d="m338.465 134.959h30v50h-30z"/></g></svg>